:version 1.10
:name ASF
:units
  mass 1
  length 1
  angle deg
:documentation
  ASF file generated by Kaydara
:root
  axis xyz
  order  tx ty tz rx ry rz
  position 0 0 0
  orientation 0 0 0
:bonedata
  begin
    id 1
    name RightUpLegDummy
    direction -0.718183 -0.695806 0.00816078
    length 4.904
    axis 0 0 0 xyz
  end
  begin
    id 2
    name RightUpLeg
    direction -0.0736652 -0.994202 0.0783343
    length 17.4976
    axis -2.72909 -3.00389 -4.00133 xyz
    dof rx ry rz
  end
  begin
    id 3
    name RightLeg
    direction -0.0389037 -0.994596 -0.0962598
    length 16.5821
    axis 3.95836 -18.5909 -4.46993 xyz
    dof rx ry rz
  end
  begin
    id 4
    name RightFoot
    direction -0.311643 -0.412678 0.855906
    length 3.77069
    axis -1.99483 -18.8351 -3.27644 xyz
    dof rx ry rz
  end
  begin
    id 5
    name RightToes
    direction -0.317852 0.0389852 0.947339
    length 3.85082
    axis -2.00228 -18.1713 -3.25211 xyz
    dof rx ry rz
  end
  begin
    id 6
    name SpineDummy
    direction 8.3039e-015 1 4.44677e-016
    length 4.6813
    axis 0 0 0 xyz
  end
  begin
    id 7
    name Spine
    direction -0.000262373 0.999988 0.00493267
    length 10.1015
    axis -0.00246081 0.00062579 0.0150362 xyz
    dof rx ry rz
  end
  begin
    id 8
    name Spine1
    direction 0 0 0
    length 0
    axis -0.00349562 0.000650293 0.0196666 xyz
    dof rx ry rz
  end
  begin
    id 9
    name HEadDummy
    direction -0.000343232 0.999999 0.00123745
    length 3.43865
    axis -0.00349562 0.000650293 0.0196666 xyz
  end
  begin
    id 10
    name HEad
    direction -0.0461221 0.980933 0.188796
    length 5.12695
    axis -0.00351404 -7.04812 0.0199272 xyz
    dof rx ry rz
  end
  begin
    id 11
    name LeftShoulder1Dummy
    direction 0.998904 -0.0399089 -0.0244534
    length 3.5433
    axis -0.00349562 0.000650293 0.0196666 xyz
  end
  begin
    id 12
    name LeftShoulder1
    direction 0.99951 1.64443e-005 0.0312999
    length 4.05031
    axis -0.00349562 0.000650293 0.0196666 xyz
    dof rx ry rz
  end
  begin
    id 13
    name LeftArm
    direction 0.984791 0.0515299 0.165927
    length 12.9126
    axis -64.823 -10.7743 5.20463 xyz
    dof rx ry rz
  end
  begin
    id 14
    name LeftForeArm
    direction 0.984968 0.0534808 0.16425
    length 10.8596
    axis -30.0462 -7.70601 1.87451 xyz
    dof rx ry rz
  end
  begin
    id 15
    name LeftHand
    direction 0.975871 0.0289682 0.216418
    length 6.62295
    axis -20.1348 -6.98077 1.86072 xyz
    dof rx ry rz
  end
  begin
    id 16
    name RightShoulderDummy
    direction -0.998877 -0.0405946 -0.0244307
    length 3.5433
    axis -0.00349562 0.000650293 0.0196666 xyz
  end
  begin
    id 17
    name RightShoulder
    direction -0.998933 -0.0249743 -0.0388558
    length 4.05031
    axis -0.0205316 -4.02113 1.41395 xyz
    dof rx ry rz
  end
  begin
    id 18
    name RightArm
    direction -0.997559 0.068664 0.0127103
    length 12.9638
    axis -67.3882 1.84188 -6.15987 xyz
    dof rx ry rz
  end
  begin
    id 19
    name RightForeArm
    direction -0.991508 0.0912848 0.0926241
    length 10.8312
    axis -22.1975 3.41087 -4.28711 xyz
    dof rx ry rz
  end
  begin
    id 20
    name RightHand
    direction -0.989262 0.0600788 0.133232
    length 6.57864
    axis -12.2911 2.17515 -4.39675 xyz
    dof rx ry rz
  end
  begin
    id 21
    name LeftUpLegDummy
    direction 0.718183 -0.695806 0.00816078
    length 4.904
    axis 0 0 0 xyz
  end
  begin
    id 22
    name LeftUpLeg
    direction 0.0831398 -0.99469 0.0606531
    length 17.4976
    axis -1.71016 2.29552 4.63832 xyz
    dof rx ry rz
  end
  begin
    id 23
    name LeftLeg
    direction 0.0498442 -0.991778 -0.117862
    length 16.5821
    axis 5.13757 15.5727 5.13348 xyz
    dof rx ry rz
  end
  begin
    id 24
    name LeftFoot
    direction 0.269026 -0.433896 0.85986
    length 3.77069
    axis -0.576502 15.6961 4.10267 xyz
    dof rx ry rz
  end
  begin
    id 25
    name LeftToes
    direction 0.277311 0.0251143 0.960452
    length 3.85048
    axis -0.576502 15.6961 4.10267 xyz
    dof rx ry rz
  end
:hierarchy
  begin
    root RightUpLegDummy SpineDummy LeftUpLegDummy
    RightUpLegDummy RightUpLeg
    RightUpLeg RightLeg
    RightLeg RightFoot
    RightFoot RightToes
    SpineDummy Spine
    Spine Spine1
    Spine1 HEadDummy LeftShoulder1Dummy RightShoulderDummy
    HEadDummy HEad
    LeftShoulder1Dummy LeftShoulder1
    LeftShoulder1 LeftArm
    LeftArm LeftForeArm
    LeftForeArm LeftHand
    RightShoulderDummy RightShoulder
    RightShoulder RightArm
    RightArm RightForeArm
    RightForeArm RightHand
    LeftUpLegDummy LeftUpLeg
    LeftUpLeg LeftLeg
    LeftLeg LeftFoot
    LeftFoot LeftToes
  end

:SAMPLES-PER-SECOND 30
:FULLY-SPECIFIED
:DEGREES
108
root  15.7533 38.5933 -18.0441 -3.87195 -5.78829 -3.06765
RightUpLeg  -0.802207 1.00204 10.7314
RightLeg  20.5852 4.4982 -3.66002
RightFoot  -16.4968 -0.038826 -3.1456
RightToes  5.82077e-011 -3.18055e-015 -2.98177e-016
Spine  1.11834 1.77524 13.6267
Spine1  4.50097 2.81186 -1.6211
HEad  5.58989 -1.52671 -1.53608
LeftShoulder1  -3.88251e-019 9.70628e-020 -3.87848e-018
LeftArm  -38.3158 65.0805 -80.2527
LeftForeArm  -22.9794 -10.8865 -2.25912
LeftHand  -0.340524 0.900259 9.65559
RightShoulder  7.97773 10.7876 37.1979
RightArm  16.2466 -37.2868 22.313
RightForeArm  4.21003 18.915 -7.72395
RightHand  -1.25804 4.59247 -14.5055
LeftUpLeg  -26.9511 9.39356 -0.870707
LeftLeg  42.2588 -0.987703 13.4406
LeftFoot  -1.29043 0.329715 -3.22616
LeftToes  7.79675e-011 9.80247e-012 -3.28897e-011
109
root  15.7323 38.7309 -16.7936 -3.97997 -5.77057 -2.12066
RightUpLeg  2.17521 0.545396 9.34454
RightLeg  18.8464 4.85255 -3.12389
RightFoot  -17.2443 -0.0615784 -3.30186
RightToes  5.82077e-011 -3.18055e-015 -2.98177e-016
Spine  0.320468 2.00575 11.4819
Spine1  5.08477 2.6897 -1.75546
HEad  4.87415 -2.14436 -2.14212
LeftShoulder1  -3.88251e-019 9.70628e-020 -3.87848e-018
LeftArm  -41.0036 66.2395 -81.2357
LeftForeArm  -21.9831 -6.74378 -1.64119
LeftHand  -0.21079 2.24441 8.74325
RightShoulder  7.74606 10.6686 36.3174
RightArm  20.155 -35.1102 24.8673
RightForeArm  -1.31047 21.2008 -10.6002
RightHand  -1.31366 4.7635 -14.8884
LeftUpLeg  -24.2338 8.61524 -2.11556
LeftLeg  26.7526 -1.3546 7.85292
LeftFoot  0.563108 0.382077 -3.16175
LeftToes  7.79675e-011 9.80247e-012 -3.28897e-011
110
root  15.7008 38.8332 -15.5479 -4.23954 -5.52614 -1.17592
RightUpLeg  5.23033 -0.320085 7.86828
RightLeg  17.1799 5.48366 -2.57633
RightFoot  -18.1637 -0.0571891 -2.68928
RightToes  5.82077e-011 -3.18055e-015 -2.98177e-016
Spine  -0.261315 2.16455 8.97904
Spine1  5.66351 2.60951 -1.65813
HEad  4.97897 -2.64894 -2.52213
LeftShoulder1  -3.88251e-019 9.70628e-020 -3.87848e-018
LeftArm  -42.8531 67.821 -82.0123
LeftForeArm  -19.0716 -3.90095 -1.17155
LeftHand  -0.108065 3.52894 7.96384
RightShoulder  7.52566 10.5498 35.4772
RightArm  21.5724 -33.7701 26.183
RightForeArm  -5.12648 24.1789 -12.8862
RightHand  -1.3297 4.86151 -14.9266
LeftUpLeg  -20.1843 4.28792 -2.24998
LeftLeg  10.5065 -1.25424 3.28094
LeftFoot  0.906463 0.55538 -4.54292
LeftToes  7.79675e-011 9.80247e-012 -3.28897e-011
111
root  15.7205 38.7595 -14.2404 -4.67937 -5.51036 -0.618127
RightUpLeg  7.99769 -1.59769 6.63444
RightLeg  16.8142 6.65899 -2.48076
RightFoot  -19.5145 -0.0353327 -1.75918
RightToes  5.82077e-011 -3.18055e-015 -2.98177e-016
Spine  -0.606896 2.27776 7.47524
Spine1  6.2754 2.71872 -1.92252
HEad  5.39783 -2.7528 -2.38634
LeftShoulder1  -3.88251e-019 9.70628e-020 -3.87848e-018
LeftArm  -43.3577 69.8043 -81.9861
LeftForeArm  -15.4337 -2.72105 -0.98403
LeftHand  -0.0391053 4.56911 7.47239
RightShoulder  7.42464 10.4938 35.0897
RightArm  21.3256 -32.7537 26.5921
RightForeArm  -7.68556 27.4891 -14.4121
RightHand  -1.3844 4.89282 -15.4825
LeftUpLeg  -17.0998 -4.21915 -0.560788
LeftLeg  0.174452 3.14572 1.00888
LeftFoot  -0.32267 0.772771 -6.84079
LeftToes  7.79675e-011 9.80247e-012 -3.28897e-011
112
root  15.801 38.6445 -12.929 -4.97632 -5.5931 0.0285287
RightUpLeg  10.2263 -3.05269 5.17357
RightLeg  17.1324 8.14043 -2.8078
RightFoot  -20.5277 -0.0168371 -1.29003
RightToes  5.82077e-011 -3.18055e-015 -2.98177e-016
Spine  -0.871482 2.33325 6.3898
Spine1  7.04168 2.96565 -2.75355
HEad  5.42928 -2.75622 -1.93898
LeftShoulder1  -3.88251e-019 9.70628e-020 -3.87848e-018
LeftArm  -42.3935 71.7378 -80.72
LeftForeArm  -12.8638 -2.66208 -1.05951
LeftHand  -0.0104245 5.04541 6.87311
RightShoulder  7.47209 10.5141 35.2849
RightArm  21.2227 -31.9385 26.4061
RightForeArm  -9.93718 30.4672 -15.9708
RightHand  -1.46949 4.96591 -16.3054
LeftUpLeg  -16.5981 -5.30125 -1.85974
LeftLeg  -1.33927 2.71286 1.69275
LeftFoot  1.07457 0.749495 -6.1321
LeftToes  7.79675e-011 9.80247e-012 -3.28897e-011
113
root  15.9461 38.4813 -11.5767 -5.05597 -5.36753 1.08664
RightUpLeg  10.8851 -4.7697 2.95313
RightLeg  20.1919 10.0175 -3.2563
RightFoot  -21.9333 0.112024 0.40179
RightToes  5.82077e-011 -3.18055e-015 -2.98177e-016
Spine  -1.38155 2.36659 5.40238
Spine1  7.7886 3.26583 -3.79367
HEad  4.93365 -3.13028 -1.47692
LeftShoulder1  -3.88251e-019 9.70628e-020 -3.87848e-018
LeftArm  -40.0436 72.9971 -78.1451
LeftForeArm  -11.5772 -3.00495 -1.2807
LeftHand  -0.0275172 4.73633 6.50965
RightShoulder  7.62675 10.5845 35.9082
RightArm  20.7505 -31.7727 25.5686
RightForeArm  -11.2226 33.1422 -17.5075
RightHand  -1.5467 5.13899 -16.8731
LeftUpLeg  -17.7195 -5.35963 -3.48224
LeftLeg  3.20905 2.81519 2.16258
LeftFoot  6.74388 0.227241 -1.30171
LeftToes  7.79675e-011 9.80247e-012 -3.28897e-011
114
root  16.1421 38.2194 -10.164 -5.22439 -4.62441 2.66434
RightUpLeg  9.17223 -6.04329 -0.105031
RightLeg  28.3787 11.278 -3.63146
RightFoot  -22.353 0.444859 4.83906
RightToes  5.82077e-011 -3.18055e-015 -2.98177e-016
Spine  -1.90196 2.43593 4.61193
Spine1  8.2147 3.68771 -5.03181
HEad  4.24293 -4.06543 -1.00817
LeftShoulder1  -3.88251e-019 9.70628e-020 -3.87848e-018
LeftArm  -36.7479 73.1136 -74.6744
LeftForeArm  -10.6878 -3.45098 -1.49555
LeftHand  -0.0701864 4.03496 7.15174
RightShoulder  7.7791 10.654 36.5154
RightArm  19.745 -32.8851 24.3089
RightForeArm  -12.1662 35.318 -18.8501
RightHand  -1.64629 5.3389 -17.6101
LeftUpLeg  -19.4381 -5.07443 -6.04219
LeftLeg  9.78916 1.14757 3.21926
LeftFoot  11.2857 -0.731998 3.62134
LeftToes  7.79675e-011 9.80247e-012 -3.28897e-011
115
root  16.3395 38.0035 -8.8408 -5.70499 -3.66752 4.64623
RightUpLeg  5.19701 -7.03224 -3.47873
RightLeg  40.109 11.4051 -5.08696
RightFoot  -16.9808 0.346586 9.33886
RightToes  5.82077e-011 -3.18055e-015 -2.98177e-016
Spine  -1.58918 2.55987 4.02331
Spine1  8.28319 4.36098 -6.90689
HEad  3.4378 -5.32118 -0.532988
LeftShoulder1  -3.88251e-019 9.70628e-020 -3.87848e-018
LeftArm  -33.6045 72.0311 -71.3731
LeftForeArm  -10.281 -4.15933 -1.57678
LeftHand  -0.112123 3.58823 8.65097
RightShoulder  7.83628 10.6835 36.7333
RightArm  18.4825 -35.1295 23.3289
RightForeArm  -13.0418 36.4006 -19.5299
RightHand  -1.77195 5.43311 -18.7705
LeftUpLeg  -20.3352 -4.62425 -9.52347
LeftLeg  15.6616 -1.49119 4.70741
LeftFoot  9.86152 -1.23686 6.24978
LeftToes  7.79675e-011 9.80247e-012 -3.28897e-011
116
root  16.498 37.899 -7.71802 -6.54034 -3.21121 6.34831
RightUpLeg  -0.575876 -6.88734 -5.77361
RightLeg  52.0556 10.2988 -8.94017
RightFoot  -5.71442 -0.637376 10.3241
RightToes  5.82077e-011 -3.18055e-015 -2.98177e-016
Spine  -0.15979 2.7822 3.85971
Spine1  8.23749 5.19946 -9.20514
HEad  2.18048 -6.35432 -0.325502
LeftShoulder1  -3.88251e-019 9.70628e-020 -3.87848e-018
LeftArm  -31.6735 70.202 -69.4479
LeftForeArm  -11.5115 -5.58669 -1.51088
LeftHand  -0.134526 3.46688 9.75881
RightShoulder  7.82827 10.6915 36.6757
RightArm  17.4968 -37.2357 23.2182
RightForeArm  -12.9623 35.7496 -19.0916
RightHand  -1.7845 5.37506 -18.9938
LeftUpLeg  -19.8217 -4.57789 -12.1234
LeftLeg  20.0007 -2.02261 5.7054
LeftFoot  5.0823 -1.14082 7.188
LeftToes  7.79675e-011 9.80247e-012 -3.28897e-011
117
root  16.5896 37.8499 -6.80232 -7.42566 -3.4991 7.26933
RightUpLeg  -6.93217 -5.93763 -6.30752
RightLeg  61.445 9.90397 -13.6471
RightFoot  3.01033 -1.19945 8.23003
RightToes  5.82077e-011 -3.18055e-015 -2.98177e-016
Spine  1.66345 3.09851 3.6681
Spine1  8.51258 5.85611 -10.9084
HEad  0.384094 -6.64742 -0.653328
LeftShoulder1  -3.88251e-019 9.70628e-020 -3.87848e-018
LeftArm  -30.8813 68.2844 -69.1579
LeftForeArm  -14.3619 -8.13775 -1.43564
LeftHand  -0.158041 3.14492 9.59611
RightShoulder  7.85662 10.7236 36.7442
RightArm  17.0947 -37.967 23.869
RightForeArm  -11.2193 33.1512 -17.5075
RightHand  -1.5717 5.30916 -16.8625
LeftUpLeg  -18.4509 -3.58167 -13.5142
LeftLeg  22.408 -2.04459 6.2531
LeftFoot  1.78453 -0.92118 7.08208
LeftToes  7.79675e-011 9.80247e-012 -3.28897e-011
118
root  16.5976 37.9187 -5.95407 -7.91841 -3.72663 7.1626
RightUpLeg  -12.5345 -5.52523 -5.12377
RightLeg  67.4778 10.5613 -16.5728
RightFoot  3.90092 -0.901935 5.76812
RightToes  5.82077e-011 -3.18055e-015 -2.98177e-016
Spine  2.82856 3.25153 3.25336
Spine1  8.95936 5.92522 -11.0286
HEad  -1.38512 -6.2519 -1.32127
LeftShoulder1  -3.88251e-019 9.70628e-020 -3.87848e-018
LeftArm  -30.3308 66.5465 -69.7653
LeftForeArm  -16.7685 -11.6276 -1.51135
LeftHand  -0.214583 2.18446 8.76257
RightShoulder  7.94716 10.7823 37.0598
RightArm  16.9673 -37.5827 24.7107
RightForeArm  -8.78599 29.105 -15.2496
RightHand  -1.27589 5.43851 -13.6029
LeftUpLeg  -16.9792 -3.5143 -13.5296
LeftLeg  23.4155 -1.84227 6.60285
LeftFoot  0.49545 -0.788083 6.62209
LeftToes  7.79675e-011 9.80247e-012 -3.28897e-011
119
root  16.5176 38.1129 -5.10697 -7.86966 -2.86429 6.22908
RightUpLeg  -17.0949 -6.35356 -2.8516
RightLeg  70.3216 11.5033 -16.4038
RightFoot  0.80805 -0.606069 4.85965
RightToes  5.82077e-011 -3.18055e-015 -2.98177e-016
Spine  3.27252 2.98521 2.61709
Spine1  9.02265 5.27257 -9.59981
HEad  -2.56621 -5.7941 -1.85917
LeftShoulder1  -3.88251e-019 9.70628e-020 -3.87848e-018
LeftArm  -29.0805 64.7296 -70.3921
LeftForeArm  -17.0946 -15.3903 -1.71743
LeftHand  -0.32382 0.588706 8.54935
RightShoulder  8.01824 10.8258 37.3118
RightArm  16.3809 -37.4727 25.29
RightForeArm  -7.46655 24.7952 -13.0054
RightHand  -1.13716 5.47188 -12.1101
LeftUpLeg  -15.715 -5.4026 -12.6795
LeftLeg  23.8502 -1.39349 6.93347
LeftFoot  -0.867394 -0.657964 6.11356
LeftToes  7.79675e-011 9.80247e-012 -3.28897e-011
